<svg id="SvgjsSvg1001" width="288" height="288" xmlns="http://www.w3.org/2000/svg" version="1.1" xmlns:xlink="http://www.w3.org/1999/xlink" xmlns:svgjs="http://svgjs.com/svgjs"><defs id="SvgjsDefs1002"></defs><g id="SvgjsG1008"><svg xmlns="http://www.w3.org/2000/svg" width="288" height="288" fill-rule="evenodd" clip-rule="evenodd" image-rendering="optimizeQuality" shape-rendering="geometricPrecision" text-rendering="geometricPrecision" viewBox="0 0 4292 785"><path fill="#ffffff" fill-rule="nonzero" d="M181 771c13 0 20-7 20-20l0-426c0-13-7-20-20-20l-141 0c-13 0-19 7-19 20l0 426c0 13 7 20 19 20l141 0zM567 260c-20-7-51-12-78-12-126 0-208 86-208 222l0 87c0 133 94 227 237 227 69 0 153-14 214-36 11-4 16-12 16-22l0-633c0-13-7-20-20-20l-141 0c-13 0-20 7-20 20l0 167zm-102 302l0-97c0-41 20-62 56-62 18 0 33 3 47 8l0 206c-14 5-29 8-46 8-37 0-57-21-57-62zM1286 461c0-150-91-213-223-213-137 0-235 65-235 213l0 109c0 140 100 214 241 214 90 0 153-26 200-62 10-8 10-18 3-27l-58-80c-7-10-16-12-26-5-33 19-72 27-111 27-43 0-66-21-66-62l0-5 257 0c13 0 20-7 20-20l0-90zm-173-11l0 16-104 0 0-16c0-38 18-58 52-58 34 0 53 20 53 58zM226 112c0-66-46-112-112-112-68 0-114 46-114 112 0 30 11 58 30 78l82 86c13-14 85-86 85-86 19-20 29-47 29-78zm-115-42c19 0 34 15 34 34 0 19-15 34-34 34-19 0-34-15-34-34 0-19 15-34 34-34zM1572 275c0-1-1-2-2-2l-11 0c-1 0-2 1-2 2l0 191c0 1 1 2 2 2l11 0c1 0 2-1 2-2l0-191zm58 193c1 0 2-1 2-2l0-122c11-4 25-7 38-7 29 0 45 13 45 44l0 84c0 1 1 2 2 2l10 0c1 0 2-1 2-2l0-85c0-39-23-57-59-57-18 0-36 4-51 11-1 1-2 2-2 3l0 128c0 1 1 2 2 2l10 0zm199-184c1 0 2-1 2-2l0-8c0-1-1-2-2-2-5-1-12-1-16-1-26 0-44 17-44 47l0 149c0 1 1 2 2 2l10 0c1 0 2-1 2-2l0-125 44 0c1 0 2-1 2-2l0-8c0-1-1-2-2-2l-44 0 0-11c0-21 11-34 31-34 4 0 10 0 15 1l0 0zm37 184c1 0 2-1 2-2l0-122c10-4 23-7 35-7 8 0 18 1 26 2 1 0 2-1 2-2l0-8c0-1-1-2-2-2-9-1-19-2-28-2-16 0-33 4-46 10-1 1-2 2-2 3l0 129c0 1 1 2 2 2l10 0zm85-130c-1 1-1 2 0 3l5 7c1 1 2 1 3 1 10-6 25-11 42-11 28 0 38 14 38 39l0 12c-10-2-24-4-38-4-35 0-57 15-57 43 0 30 26 44 57 44 20 0 39-5 51-9 1-1 2-2 2-3l0-83c0-33-18-52-52-52-21 0-38 6-50 14zm7 88c0-19 14-30 43-30 14 0 28 2 38 4l0 51c-10 3-23 7-38 7-25 0-43-11-43-31zm241-49c0-35-25-53-55-53-31 0-56 18-56 53l0 43c0 33 27 51 56 51 23 0 40-10 53-21 1-1 1-2 0-3l-5-6c-1-1-2-1-3-1-10 9-24 17-45 17-23 0-41-14-41-37l0-15 94 0c1 0 2-1 2-2l0-26zm-14 0l0 16-83 0 0-16c0-26 16-40 41-40 24 0 41 14 41 40zm145 53c0-29-27-35-50-40-21-4-40-10-40-28 0-15 14-24 36-24 15 0 30 4 42 11 1 1 3 0 3-1l4-7c1-1 1-2-1-3-14-8-29-13-48-13-27 0-51 13-51 37 0 29 30 37 52 42 18 4 38 8 38 27 0 18-16 27-38 27-17 0-32-6-46-16-1-1-2-1-3 1l-5 8c-1 1-1 2 1 3 15 12 33 18 53 18 33 0 53-16 53-41zm44-6l0-83 42 0c1 0 2-1 2-2l0-8c0-1-1-2-2-2l-42 0-1-33c0-1-1-2-2-2l-9 0c-1 0-2 1-2 2l0 130c0 30 17 46 44 46 4 0 11 0 16-1 2 0 2-1 2-2l0-9c0-2-1-2-2-2-5 0-11 1-15 1-20 0-30-13-30-33zm83 44c1 0 2-1 2-2l0-122c10-4 23-7 35-7 8 0 18 1 26 2 1 0 2-1 2-2l0-8c0-1-1-2-2-2-9-1-19-2-28-2-16 0-33 4-46 10-1 1-2 2-2 3l0 129c0 1 1 2 2 2l10 0zm187-141c-2 0-2 1-2 2l0 121c-10 4-24 7-37 7-28 0-44-14-44-44l0-84c0-2-1-2-2-2l-10 0c-1 0-2 1-2 2l0 84c0 39 23 57 58 57 18 0 35-4 50-11 1-1 2-2 2-3l0-128c0-2-1-2-2-2l-10 0zm151 127c1-1 1-2 0-3l-5-7c-1-1-2-1-3 0-13 9-26 14-40 14-27 0-42-17-42-39l0-43c0-22 15-38 42-38 14 0 25 4 37 12 1 1 2 0 3-1l5-7c1-1 1-2-1-3-13-9-28-14-44-14-35 0-56 22-56 52l0 43c0 29 21 52 56 52 19 0 34-6 48-17zm42-30l0-83 42 0c1 0 2-1 2-2l0-8c0-1-1-2-2-2l-42 0-1-33c0-1-1-2-2-2l-9 0c-1 0-2 1-2 2l0 130c0 30 17 46 44 46 4 0 11 0 16-1 2 0 2-1 2-2l0-9c0-2-1-2-2-2-5 0-11 1-15 1-20 0-30-13-30-33zm168-97c-2 0-2 1-2 2l0 121c-10 4-24 7-37 7-28 0-44-14-44-44l0-84c0-2-1-2-2-2l-10 0c-1 0-2 1-2 2l0 84c0 39 23 57 58 57 18 0 35-4 50-11 1-1 2-2 2-3l0-128c0-2-1-2-2-2l-10 0zm64 141c1 0 2-1 2-2l0-122c10-4 23-7 35-7 8 0 18 1 26 2 1 0 2-1 2-2l0-8c0-1-1-2-2-2-9-1-19-2-28-2-16 0-33 4-46 10-1 1-2 2-2 3l0 129c0 1 1 2 2 2l10 0zm85-130c-1 1-1 2 0 3l5 7c1 1 2 1 3 1 10-6 25-11 42-11 28 0 38 14 38 39l0 12c-10-2-24-4-38-4-35 0-57 15-57 43 0 30 26 44 57 44 20 0 39-5 51-9 1-1 2-2 2-3l0-83c0-33-18-52-52-52-21 0-38 6-50 14zm7 88c0-19 14-30 43-30 14 0 28 2 38 4l0 51c-10 3-23 7-38 7-25 0-43-11-43-31zm289-92c-11-7-25-11-39-11-35 0-58 20-58 58l0 30c0 41 24 59 59 59 17 0 36-4 51-10 1 0 2-1 2-2l0-184c0-1-1-2-2-2l-10 0c-1 0-2 1-2 2l0 60zm-83 77l0-30c0-32 16-45 45-45 14 0 28 5 38 12l0 102c-11 4-24 6-38 6-28 0-45-13-45-46zm244-35c0-35-25-53-55-53-31 0-56 18-56 53l0 43c0 33 27 51 56 51 23 0 40-10 53-21 1-1 1-2 0-3l-5-6c-1-1-2-1-3-1-10 9-24 17-45 17-23 0-41-14-41-37l0-15 94 0c1 0 2-1 2-2l0-26zm-14 0l0 16-83 0 0-16c0-26 16-40 41-40 24 0 41 14 41 40zm-1971 356c42 0 69-25 69-68l0-58c0-43-26-69-69-69l-66 0c-1 0-2 1-2 2l0 191c0 1 1 2 2 2l66 0zm-53-181l53 0c34 0 53 20 53 55l0 58c0 35-20 54-53 54l-53 0 0-167zm158 52c-1 1-1 2 0 3l5 7c1 1 2 1 3 1 10-6 25-11 42-11 28 0 38 14 38 39l0 12c-10-2-24-4-38-4-35 0-57 15-57 43 0 30 26 44 57 44 20 0 39-5 51-9 1-1 2-2 2-3l0-83c0-33-18-52-52-52-21 0-38 6-50 14zm7 88c0-19 14-30 43-30 14 0 28 2 38 4l0 51c-10 3-23 7-38 7-25 0-43-11-43-31zm147-3l0-83 42 0c1 0 2-1 2-2l0-8c0-1-1-2-2-2l-42 0-1-33c0-1-1-2-2-2l-9 0c-1 0-2 1-2 2l0 130c0 30 17 46 44 46 4 0 11 0 16-1 2 0 2-1 2-2l0-9c0-2-1-2-2-2-5 0-11 1-15 1-20 0-30-13-30-33zm181-5l0-42c0-30-21-53-58-53-37 0-58 23-58 53l0 42c0 30 21 52 58 52 37 0 58-22 58-52zm-102 0l0-42c0-23 15-39 43-39 29 0 44 17 44 39l0 42c0 23-14 39-44 39-29 0-43-17-43-39zm234 11c0-29-27-35-50-40-21-4-40-10-40-28 0-15 14-24 36-24 15 0 30 4 42 11 1 1 3 0 3-1l4-7c1-1 1-2-1-3-14-8-29-13-48-13-27 0-51 13-51 37 0 29 30 37 52 42 18 4 38 8 38 27 0 18-16 27-38 27-17 0-32-6-46-16-1-1-2-1-3 1l-5 8c-1 1-1 2 1 3 15 12 33 18 53 18 33 0 53-16 53-41zm114-55l90 0c1 0 2-1 2-2l0-9c0-2-1-2-2-2l-90 0 0-75 95 0c2 0 2-1 2-2l0-10c0-1-1-2-2-2l-108 0c-1 0-2 1-2 2l0 191c0 1 1 2 2 2l112 0c1 0 2-1 2-2l0-10c0-1-1-2-2-2l-99 0 0-79zm233 55c0-29-27-35-50-40-21-4-40-10-40-28 0-15 14-24 36-24 15 0 30 4 42 11 1 1 3 0 3-1l4-7c1-1 1-2-1-3-14-8-29-13-48-13-27 0-51 13-51 37 0 29 30 37 52 42 18 4 38 8 38 27 0 18-16 27-38 27-17 0-32-6-46-16-1-1-2-1-3 1l-5 8c-1 1-1 2 1 3 15 12 33 18 53 18 33 0 53-16 53-41zm31-96c-1 1-2 1-2 3l0 181c0 1 1 2 2 2l10 0c1 0 2-1 2-2l0-58c11 7 25 11 39 11 36 0 58-20 58-58l0-30c0-41-24-59-59-59-18 0-36 4-51 10zm51 124c-14 0-28-5-38-12l0-102c11-4 24-7 38-7 28 0 45 13 45 46l0 30c0 32-16 45-45 45zm92-119c-1 1-1 2 0 3l5 7c1 1 2 1 3 1 10-6 25-11 42-11 28 0 38 14 38 39l0 12c-10-2-24-4-38-4-35 0-57 15-57 43 0 30 26 44 57 44 20 0 39-5 51-9 1-1 2-2 2-3l0-83c0-33-18-52-52-52-21 0-38 6-50 14zm7 88c0-19 14-30 43-30 14 0 28 2 38 4l0 51c-10 3-23 7-38 7-25 0-43-11-43-31zm233 28c1-1 1-2 0-3l-5-7c-1-1-2-1-3 0-13 9-26 14-40 14-27 0-42-17-42-39l0-43c0-22 15-38 42-38 14 0 25 4 37 12 1 1 2 0 3-1l5-7c1-1 1-2-1-3-13-9-28-14-44-14-35 0-56 22-56 52l0 43c0 29 21 52 56 52 19 0 34-6 48-17zm41 14c1 0 2-1 2-2l0-136c0-2-1-2-2-2l-10 0c-1 0-2 1-2 2l0 136c0 1 1 2 2 2l10 0zm5-179c0-6-4-10-10-10-6 0-10 4-10 10 0 5 4 10 10 10 5 0 10-4 10-10zm36 50c-1 1-1 2 0 3l5 7c1 1 2 1 3 1 10-6 25-11 42-11 28 0 38 14 38 39l0 12c-10-2-24-4-38-4-35 0-57 15-57 43 0 30 26 44 57 44 20 0 39-5 51-9 1-1 2-2 2-3l0-83c0-33-18-52-52-52-21 0-38 6-50 14zm7 88c0-19 14-30 43-30 14 0 28 2 38 4l0 51c-10 3-23 7-38 7-25 0-43-11-43-31zm186 43c1 0 2-1 2-3l0-8c0-2-1-2-2-2-5 1-11 1-14 1-15 0-24-10-24-33l0-149c0-1-1-2-2-2l-10 0c-1 0-2 1-2 2l0 149c0 33 14 48 37 48 4 0 11-1 16-1zm128-93c0-35-25-53-55-53-31 0-56 18-56 53l0 43c0 33 27 51 56 51 23 0 40-10 53-21 1-1 1-2 0-3l-5-6c-1-1-2-1-3-1-10 9-24 17-45 17-23 0-41-14-41-37l0-15 94 0c1 0 2-1 2-2l0-26zm-14 0l0 16-83 0 0-16c0-26 16-40 41-40 24 0 41 14 41 40zm145 53c0-29-27-35-50-40-21-4-40-10-40-28 0-15 14-24 36-24 15 0 30 4 42 11 1 1 3 0 3-1l4-7c1-1 1-2-1-3-14-8-29-13-48-13-27 0-51 13-51 37 0 29 30 37 52 42 18 4 38 8 38 27 0 18-16 27-38 27-17 0-32-6-46-16-1-1-2-1-3 1l-5 8c-1 1-1 2 1 3 15 12 33 18 53 18 33 0 53-16 53-41zm81-157c-2 0-4 1-4 4l0 22c0 2 2 4 4 4l55 0 0 161c0 3 1 4 4 4l25 0c2 0 4-1 4-4l0-161 55 0c2 0 4-1 4-4l0-22c0-3-2-4-4-4l-143 0zm143 65c-1 1-1 2 0 5l11 17c1 2 4 2 5 1 9-5 21-9 35-9 20 0 27 8 27 28l0 5c-8-1-18-2-27-2-35 0-60 14-60 44 0 34 29 46 61 46 20 0 41-4 55-8 2-1 3-2 3-5l0-80c0-39-23-55-57-55-22 0-40 5-54 14zm24 88c0-11 8-18 29-18 8 0 19 1 27 2l0 31c-7 2-17 3-26 3-17 0-29-5-29-18zm147 43c3 0 4-1 4-4l0-109c6-2 16-3 26-3 20 0 32 8 32 33l0 79c0 3 2 4 4 4l24 0c2 0 4-1 4-4l0-80c0-44-26-61-63-61-19 0-39 4-54 11-2 1-3 3-3 5l0 125c0 3 1 4 4 4l23 0zm210-139c-8-4-19-6-30-6-34 0-60 22-60 58l0 30c0 42 27 60 63 60 18 0 39-4 55-10 2-1 3-2 3-5l0-180c0-3-1-4-4-4l-24 0c-3 0-4 1-4 4l0 52zm-57 82l0-30c0-21 11-30 31-30 11 0 20 3 26 7l0 81c-7 2-16 4-26 4-20 0-31-8-31-32zm151 57c2 0 4-1 4-4l0-134c0-2-1-4-4-4l-24 0c-2 0-4 1-4 4l0 134c0 3 2 4 4 4l24 0zm6-179c0-10-7-18-18-18-10 0-18 7-18 18 0 10 8 18 18 18 10 0 18-8 18-18zm93 181c2 0 3-2 3-4l0-20c0-3-1-4-4-4-4 0-7 1-10 1-12 0-18-7-18-25l0-140c0-3-1-4-4-4l-24 0c-3 0-4 1-4 4l0 142c0 33 16 53 46 53 5 0 11 0 16-1l0 0z" class="color232323 svgShape"></path></svg></g></svg>