<?xml version="1.0" encoding="UTF-8"?>
<!DOCTYPE svg PUBLIC "-//W3C//DTD SVG 1.1//EN" "http://www.w3.org/Graphics/SVG/1.1/DTD/svg11.dtd">
<!-- Creator: CorelDRAW 2017 -->
<svg xmlns="http://www.w3.org/2000/svg" xml:space="preserve" width="98.3121mm" height="17.9761mm" version="1.1" style="shape-rendering:geometricPrecision; text-rendering:geometricPrecision; image-rendering:optimizeQuality; fill-rule:evenodd; clip-rule:evenodd"
viewBox="0 0 15084 2758"
 xmlns:xlink="http://www.w3.org/1999/xlink">
 <defs>
  <style type="text/css">
   <![CDATA[
    .fil0 {fill:#2B8F88;fill-rule:nonzero}
   ]]>
  </style>
 </defs>
 <g id="Capa_x0020_1">
  <metadata id="CorelCorpID_0Corel-Layer"/>
  <path class="fil0" d="M795 394c0,-232 -161,-394 -394,-394 -240,0 -401,161 -401,394 0,107 38,203 104,273l290 303c47,-48 298,-303 298,-303 65,-70 103,-166 103,-273zm-403 -148c66,0 119,53 119,119 0,66 -53,119 -119,119 -66,0 -119,-53 -119,-119 0,-66 53,-119 119,-119z"/>
  <path class="fil0" d="M635 2710c45,0 69,-24 69,-69l0 -1498c0,-45 -24,-69 -69,-69l-497 0c-44,0 -69,24 -69,69l0 1498c0,44 24,69 69,69l497 0z"/>
  <path class="fil0" d="M1991 914c-69,-24 -178,-41 -274,-41 -442,0 -730,302 -730,781l0 305c0,466 329,798 833,798 243,0 538,-48 750,-127 38,-14 55,-41 55,-79l0 -2224c0,-45 -24,-69 -69,-69l-497 0c-45,0 -69,24 -69,69l0 586zm-360 1062l0 -339c0,-144 69,-219 195,-219 62,0 116,10 164,27l0 723c-48,17 -103,27 -161,27 -130,0 -199,-75 -199,-219z"/>
  <path class="fil0" d="M4520 1620c0,-528 -319,-747 -785,-747 -483,0 -826,230 -826,747l0 384c0,493 353,754 846,754 315,0 538,-93 702,-219 34,-27 34,-62 10,-96l-206 -281c-24,-34 -55,-41 -93,-17 -117,65 -254,96 -391,96 -151,0 -233,-75 -233,-219l0 -17 905 0c45,0 69,-24 69,-69l0 -315zm-606 -38l0 55 -367 0 0 -55c0,-134 62,-206 182,-206 120,0 185,72 185,206z"/>
  <path class="fil0" d="M5525 965c0,-5 -3,-8 -8,-8l-37 0c-5,0 -8,3 -8,8l0 671c0,5 3,8 8,8l37 0c5,0 8,-3 8,-8l0 -671zm203 679c5,0 8,-3 8,-8l0 -427c37,-13 86,-23 134,-23 101,0 158,47 158,155l0 296c0,5 4,8 9,8l35 0c5,0 8,-3 8,-8l0 -298c0,-136 -81,-200 -208,-200 -64,0 -126,14 -179,37 -5,2 -7,6 -7,10l0 450c0,5 4,8 9,8l35 0zm699 -648c5,0 8,-3 8,-8l0 -29c0,-5 -2,-8 -8,-9 -18,-3 -42,-4 -58,-4 -91,0 -154,60 -154,165l0 524c0,5 4,8 9,8l35 0c5,0 8,-3 8,-8l0 -439 154 0c5,0 8,-3 8,-8l0 -30c0,-5 -3,-9 -8,-9l-154 0 0 -40c0,-74 37,-118 109,-118 13,0 35,1 52,3l0 0zm129 648c5,0 8,-3 8,-8l0 -428c35,-14 80,-23 124,-23 30,0 62,3 91,8 5,1 9,-2 9,-7l0 -30c0,-5 -2,-8 -8,-9 -33,-5 -66,-9 -98,-9 -56,0 -115,12 -162,35 -5,2 -7,6 -7,10l0 453c0,5 4,8 9,8l35 0zm299 -455c-3,2 -3,6 0,10l16 25c3,4 7,5 11,2 36,-22 89,-39 147,-39 97,0 134,50 134,135l0 41c-37,-7 -85,-15 -134,-15 -124,0 -202,53 -202,152 0,104 91,156 202,156 71,0 136,-16 179,-33 5,-2 7,-6 7,-10l0 -292c0,-115 -64,-182 -183,-182 -72,0 -134,20 -176,50zm24 310c0,-68 50,-107 150,-107 48,0 99,7 134,14l0 179c-34,12 -81,23 -134,23 -87,0 -150,-40 -150,-110zm845 -174c0,-123 -86,-186 -195,-186 -110,0 -197,63 -197,186l0 152c0,114 94,178 196,178 82,0 141,-34 185,-72 5,-4 5,-8 1,-12l-17 -22c-3,-5 -7,-5 -12,-2 -36,31 -85,61 -157,61 -80,0 -145,-48 -145,-132l0 -54 331 0c5,0 9,-3 9,-8l0 -90zm-50 0l0 55 -290 0 0 -55c0,-92 58,-139 145,-139 85,0 145,48 145,139zm510 185c0,-102 -94,-123 -177,-140 -72,-15 -141,-34 -141,-100 0,-53 51,-85 126,-85 53,0 105,15 146,39 5,3 10,1 12,-3l15 -26c3,-5 2,-9 -3,-12 -50,-28 -102,-46 -168,-46 -96,0 -178,45 -178,132 0,103 107,132 182,146 63,13 134,28 134,96 0,62 -56,96 -134,96 -60,0 -113,-20 -161,-56 -5,-4 -9,-3 -12,2l-16 27c-2,4 -2,8 3,11 54,41 116,62 185,62 115,0 187,-56 187,-144zm154 -21l0 -292 146 0c5,0 8,-3 8,-8l0 -30c0,-5 -3,-9 -8,-9l-147 0 -3 -117c-1,-5 -4,-8 -9,-8l-31 0c-5,0 -8,3 -8,8l0 457c0,107 61,163 156,163 13,0 37,-1 55,-3 6,-1 8,-4 8,-9l0 -31c0,-6 -3,-9 -8,-8 -18,1 -40,2 -53,2 -70,0 -107,-44 -107,-117zm292 155c5,0 8,-3 8,-8l0 -428c35,-14 80,-23 124,-23 30,0 62,3 91,8 5,1 9,-2 9,-7l0 -30c0,-5 -2,-8 -8,-9 -33,-5 -66,-9 -98,-9 -56,0 -115,12 -162,35 -5,2 -7,6 -7,10l0 453c0,5 4,8 9,8l35 0zm658 -495c-6,0 -9,3 -9,9l0 426c-36,13 -84,24 -131,24 -98,0 -154,-48 -154,-155l0 -296c0,-6 -3,-9 -9,-9l-35 0c-5,0 -8,3 -8,9l0 297c0,136 80,200 205,200 63,0 124,-14 176,-37 4,-2 6,-6 6,-10l0 -450c0,-6 -3,-9 -8,-9l-35 0zm531 447c4,-3 4,-7 1,-12l-16 -24c-3,-4 -7,-5 -12,-1 -45,33 -91,49 -142,49 -93,0 -146,-59 -146,-135l0 -153c0,-76 52,-134 146,-134 48,0 89,13 130,41 5,3 9,1 12,-2l16 -25c3,-4 2,-8 -3,-12 -47,-33 -97,-50 -155,-50 -123,0 -197,79 -197,182l0 153c0,103 74,182 197,182 66,0 119,-20 169,-59zm147 -107l0 -292 146 0c5,0 8,-3 8,-8l0 -30c0,-5 -3,-9 -8,-9l-147 0 -3 -117c-1,-5 -4,-8 -9,-8l-31 0c-5,0 -8,3 -8,8l0 457c0,107 61,163 156,163 13,0 37,-1 55,-3 6,-1 8,-4 8,-9l0 -31c0,-6 -3,-9 -8,-8 -18,1 -40,2 -53,2 -70,0 -107,-44 -107,-117zm590 -340c-6,0 -9,3 -9,9l0 426c-36,13 -84,24 -131,24 -98,0 -154,-48 -154,-155l0 -296c0,-6 -3,-9 -9,-9l-35 0c-5,0 -8,3 -8,9l0 297c0,136 80,200 205,200 63,0 124,-14 176,-37 4,-2 6,-6 6,-10l0 -450c0,-6 -3,-9 -8,-9l-35 0zm225 495c5,0 8,-3 8,-8l0 -428c35,-14 80,-23 124,-23 30,0 62,3 91,8 5,1 9,-2 9,-7l0 -30c0,-5 -2,-8 -8,-9 -33,-5 -66,-9 -98,-9 -56,0 -115,12 -162,35 -5,2 -7,6 -7,10l0 453c0,5 4,8 9,8l35 0zm299 -455c-3,2 -3,6 0,10l16 25c3,4 7,5 11,2 36,-22 89,-39 147,-39 97,0 134,50 134,135l0 41c-37,-7 -85,-15 -134,-15 -124,0 -202,53 -202,152 0,104 91,156 202,156 71,0 136,-16 179,-33 5,-2 7,-6 7,-10l0 -292c0,-115 -64,-182 -183,-182 -72,0 -134,20 -176,50zm24 310c0,-68 50,-107 150,-107 48,0 99,7 134,14l0 179c-34,12 -81,23 -134,23 -87,0 -150,-40 -150,-110zm1017 -322c-38,-23 -86,-38 -138,-38 -124,0 -205,70 -205,206l0 104c0,143 83,207 208,207 61,0 126,-13 179,-35 5,-1 7,-5 7,-9l0 -646c0,-5 -3,-8 -9,-8l-35 0c-5,0 -8,3 -8,8l0 212zm-291 271l0 -104c0,-111 57,-159 157,-159 50,0 97,16 134,41l0 360c-37,13 -85,22 -134,22 -100,0 -158,-46 -158,-160zm858 -123c0,-123 -86,-186 -195,-186 -110,0 -197,63 -197,186l0 152c0,114 94,178 196,178 82,0 141,-34 185,-72 5,-4 5,-8 1,-12l-17 -22c-3,-5 -7,-5 -12,-2 -36,31 -85,61 -157,61 -80,0 -145,-48 -145,-132l0 -54 331 0c5,0 9,-3 9,-8l0 -90zm-50 0l0 55 -290 0 0 -55c0,-92 58,-139 145,-139 85,0 145,48 145,139zm-6926 1251c149,0 242,-87 242,-239l0 -206c0,-152 -92,-242 -242,-242l-231 0c-5,0 -8,3 -8,8l0 671c0,5 3,8 8,8l231 0zm-185 -638l185 0c118,0 187,69 187,193l0 206c0,123 -69,189 -187,189l-185 0 0 -588zm556 183c-3,2 -3,6 0,10l16 25c3,4 7,5 11,2 36,-22 89,-39 147,-39 97,0 134,50 134,135l0 41c-37,-7 -85,-15 -134,-15 -124,0 -202,53 -202,152 0,104 91,156 202,156 71,0 136,-16 179,-33 5,-2 7,-6 7,-10l0 -292c0,-115 -64,-182 -183,-182 -72,0 -134,20 -176,50zm24 310c0,-68 50,-107 150,-107 48,0 99,7 134,14l0 179c-34,12 -81,23 -134,23 -87,0 -150,-40 -150,-110zm518 -10l0 -292 146 0c5,0 8,-3 8,-8l0 -30c0,-5 -3,-9 -8,-9l-147 0 -3 -117c-1,-5 -4,-8 -9,-8l-31 0c-5,0 -8,3 -8,8l0 457c0,107 61,163 156,163 13,0 37,-1 55,-3 6,-1 8,-4 8,-9l0 -31c0,-6 -3,-9 -8,-8 -18,1 -40,2 -53,2 -70,0 -107,-44 -107,-117zm636 -19l0 -146c0,-106 -74,-185 -205,-185 -130,0 -205,80 -205,185l0 146c0,107 75,184 205,184 131,0 205,-78 205,-184zm-357 0l0 -146c0,-80 52,-138 153,-138 103,0 154,59 154,138l0 146c0,80 -51,138 -154,138 -101,0 -153,-59 -153,-138zm823 40c0,-102 -94,-123 -177,-140 -72,-15 -141,-34 -141,-100 0,-53 51,-85 126,-85 53,0 105,15 146,39 5,3 10,1 12,-3l15 -26c3,-5 2,-9 -3,-12 -50,-28 -102,-46 -168,-46 -96,0 -178,45 -178,132 0,103 107,132 182,146 63,13 134,28 134,96 0,62 -56,96 -134,96 -60,0 -113,-20 -161,-56 -5,-4 -9,-3 -12,2l-16 27c-2,4 -2,8 3,11 54,41 116,62 185,62 115,0 187,-56 187,-144zm401 -192l315 0c5,0 8,-3 8,-8l0 -33c0,-6 -3,-9 -8,-9l-315 0 0 -263 335 0c6,0 9,-3 9,-8l0 -34c0,-5 -3,-8 -9,-8l-380 0c-5,0 -8,3 -8,8l0 671c0,5 3,8 8,8l395 0c5,0 8,-3 8,-8l0 -34c0,-5 -3,-8 -8,-8l-350 0 0 -277zm817 192c0,-102 -94,-123 -177,-140 -72,-15 -141,-34 -141,-100 0,-53 51,-85 126,-85 53,0 105,15 146,39 5,3 10,1 12,-3l15 -26c3,-5 2,-9 -3,-12 -50,-28 -102,-46 -168,-46 -96,0 -178,45 -178,132 0,103 107,132 182,146 63,13 134,28 134,96 0,62 -56,96 -134,96 -60,0 -113,-20 -161,-56 -5,-4 -9,-3 -12,2l-16 27c-2,4 -2,8 3,11 54,41 116,62 185,62 115,0 187,-56 187,-144zm110 -337c-4,2 -6,5 -6,10l0 636c0,5 4,8 9,8l35 0c5,0 8,-3 8,-8l0 -203c37,23 86,38 137,38 125,0 206,-70 206,-206l0 -104c0,-143 -83,-207 -207,-207 -62,0 -127,13 -181,35zm180 435c-49,0 -97,-16 -134,-42l0 -358c38,-14 85,-23 134,-23 99,0 157,46 157,160l0 104c0,111 -56,159 -157,159zm323 -420c-3,2 -3,6 0,10l16 25c3,4 7,5 11,2 36,-22 89,-39 147,-39 97,0 134,50 134,135l0 41c-37,-7 -85,-15 -134,-15 -124,0 -202,53 -202,152 0,104 91,156 202,156 71,0 136,-16 179,-33 5,-2 7,-6 7,-10l0 -292c0,-115 -64,-182 -183,-182 -72,0 -134,20 -176,50zm24 310c0,-68 50,-107 150,-107 48,0 99,7 134,14l0 179c-34,12 -81,23 -134,23 -87,0 -150,-40 -150,-110zm818 97c4,-3 4,-7 1,-12l-16 -24c-3,-4 -7,-5 -12,-1 -45,33 -91,49 -142,49 -93,0 -146,-59 -146,-135l0 -153c0,-76 52,-134 146,-134 48,0 89,13 130,41 5,3 9,1 12,-2l16 -25c3,-4 2,-8 -3,-12 -47,-33 -97,-50 -155,-50 -123,0 -197,79 -197,182l0 153c0,103 74,182 197,182 66,0 119,-20 169,-59zm143 48c5,0 8,-3 8,-8l0 -478c0,-6 -3,-9 -8,-9l-36 0c-5,0 -8,3 -8,9l0 478c0,5 3,8 8,8l36 0zm16 -630c0,-20 -14,-35 -34,-35 -20,0 -35,14 -35,35 0,19 14,34 35,34 19,0 34,-14 34,-34zm125 175c-3,2 -3,6 0,10l16 25c3,4 7,5 11,2 36,-22 89,-39 147,-39 97,0 134,50 134,135l0 41c-37,-7 -85,-15 -134,-15 -124,0 -202,53 -202,152 0,104 91,156 202,156 71,0 136,-16 179,-33 5,-2 7,-6 7,-10l0 -292c0,-115 -64,-182 -183,-182 -72,0 -134,20 -176,50zm24 310c0,-68 50,-107 150,-107 48,0 99,7 134,14l0 179c-34,12 -81,23 -134,23 -87,0 -150,-40 -150,-110zm653 152c5,-1 7,-5 7,-10l0 -30c0,-6 -3,-8 -8,-8 -17,2 -37,4 -50,4 -54,0 -85,-34 -85,-117l0 -525c0,-5 -3,-8 -9,-8l-35 0c-5,0 -8,3 -8,8l0 523c0,114 50,167 132,167 15,0 38,-2 55,-4zm450 -326c0,-123 -86,-186 -195,-186 -110,0 -197,63 -197,186l0 152c0,114 94,178 196,178 82,0 141,-34 185,-72 5,-4 5,-8 1,-12l-17 -22c-3,-5 -7,-5 -12,-2 -36,31 -85,61 -157,61 -80,0 -145,-48 -145,-132l0 -54 331 0c5,0 9,-3 9,-8l0 -90zm-50 0l0 55 -290 0 0 -55c0,-92 58,-139 145,-139 85,0 145,48 145,139zm510 185c0,-102 -94,-123 -177,-140 -72,-15 -141,-34 -141,-100 0,-53 51,-85 126,-85 53,0 105,15 146,39 5,3 10,1 12,-3l15 -26c3,-5 2,-9 -3,-12 -50,-28 -102,-46 -168,-46 -96,0 -178,45 -178,132 0,103 107,132 182,146 63,13 134,28 134,96 0,62 -56,96 -134,96 -60,0 -113,-20 -161,-56 -5,-4 -9,-3 -12,2l-16 27c-2,4 -2,8 3,11 54,41 116,62 185,62 115,0 187,-56 187,-144zm284 -553c-9,0 -14,5 -14,14l0 79c0,9 6,13 14,13l194 0 0 566c0,10 5,14 13,14l88 0c9,0 13,-5 13,-14l0 -566 193 0c9,0 14,-5 14,-13l0 -79c0,-10 -6,-14 -14,-14l-502 0zm503 229c-5,4 -5,9 0,16l38 59c5,8 12,9 19,4 31,-18 75,-31 123,-31 71,0 96,29 96,97l0 18c-29,-4 -64,-8 -96,-8 -123,0 -210,49 -210,154 0,120 103,160 214,160 71,0 143,-13 193,-29 7,-3 11,-9 11,-16l0 -280c0,-135 -81,-195 -200,-195 -78,0 -142,19 -188,51zm83 308c0,-39 29,-63 101,-63 30,0 67,4 93,8l0 109c-24,6 -61,12 -92,12 -59,0 -102,-19 -102,-64zm517 150c10,0 14,-5 14,-14l0 -384c22,-6 58,-11 90,-11 70,0 111,27 111,117l0 278c0,10 6,14 14,14l84 0c9,0 13,-5 13,-14l0 -280c0,-154 -90,-215 -223,-215 -68,0 -135,13 -191,37 -8,4 -11,10 -11,17l0 440c0,10 5,14 14,14l83 0zm740 -488c-29,-12 -65,-21 -104,-21 -121,0 -209,79 -209,204l0 106c0,146 93,211 220,211 62,0 136,-13 194,-35 8,-3 11,-8 11,-16l0 -633c0,-10 -5,-14 -14,-14l-83 0c-10,0 -14,5 -14,14l0 184zm-201 289l0 -107c0,-73 39,-105 109,-105 37,0 69,10 92,25l0 285c-23,9 -58,13 -90,13 -69,0 -110,-30 -110,-112zm530 199c9,0 13,-5 13,-14l0 -470c0,-9 -5,-13 -13,-13l-84 0c-9,0 -14,5 -14,13l0 470c0,10 6,14 14,14l84 0zm21 -628c0,-37 -26,-62 -62,-62 -36,0 -63,26 -63,62 0,36 28,63 63,63 37,0 62,-28 62,-63zm326 637c8,-1 11,-8 11,-15l0 -71c0,-10 -5,-14 -14,-14 -12,1 -25,2 -37,2 -43,0 -63,-25 -63,-88l0 -494c0,-10 -5,-14 -14,-14l-83 0c-10,0 -14,5 -14,14l0 498c0,117 57,186 160,186 19,0 38,-1 55,-3l0 0z"/>
 </g>
</svg>
